<svg width="50" height="50" viewBox="0 0 50 50" fill="none" xmlns="http://www.w3.org/2000/svg">
<path d="M25.0001 4.16675C21.1323 4.16675 17.423 5.7032 14.6881 8.43811C11.9532 11.173 10.4167 14.8823 10.4167 18.7501V26.1001C10.417 26.4233 10.3422 26.7421 10.198 27.0313L6.62091 34.1834C6.44618 34.5328 6.36367 34.9211 6.38122 35.3114C6.39878 35.7017 6.51581 36.081 6.72121 36.4133C6.92662 36.7456 7.21356 37.0199 7.5548 37.2101C7.89604 37.4003 8.28024 37.5001 8.67091 37.5001H41.3292C41.7199 37.5001 42.1041 37.4003 42.4454 37.2101C42.7866 37.0199 43.0735 36.7456 43.2789 36.4133C43.4843 36.081 43.6014 35.7017 43.6189 35.3114C43.6365 34.9211 43.554 34.5328 43.3792 34.1834L39.8042 27.0313C39.6594 26.7423 39.5838 26.4234 39.5834 26.1001V18.7501C39.5834 14.8823 38.047 11.173 35.312 8.43811C32.5771 5.7032 28.8678 4.16675 25.0001 4.16675ZM25.0001 43.7501C23.7071 43.7508 22.4456 43.3504 21.3897 42.6041C20.3338 41.8579 19.5353 40.8025 19.1042 39.5834H30.8959C30.4649 40.8025 29.6664 41.8579 28.6105 42.6041C27.5545 43.3504 26.2931 43.7508 25.0001 43.7501Z" fill="#2D2D2D"/>
</svg>
