<svg width="34" height="34" viewBox="0 0 34 34" fill="none" xmlns="http://www.w3.org/2000/svg">
<path fill-rule="evenodd" clip-rule="evenodd" d="M24.5556 0C25.0565 0 25.537 0.199007 25.8912 0.553243C26.2454 0.907478 26.4444 1.38792 26.4444 1.88889V3.77778H30.2222C31.2242 3.77778 32.185 4.17579 32.8935 4.88426C33.602 5.59273 34 6.55363 34 7.55556V30.2222C34 31.2242 33.602 32.185 32.8935 32.8935C32.185 33.602 31.2242 34 30.2222 34H3.77778C2.77585 34 1.81496 33.602 1.10649 32.8935C0.398015 32.185 0 31.2242 0 30.2222V7.55556C0 6.55363 0.398015 5.59273 1.10649 4.88426C1.81496 4.17579 2.77585 3.77778 3.77778 3.77778H7.55556V1.88889C7.55556 1.38792 7.75456 0.907478 8.1088 0.553243C8.46303 0.199007 8.94348 0 9.44444 0C9.94541 0 10.4259 0.199007 10.7801 0.553243C11.1343 0.907478 11.3333 1.38792 11.3333 1.88889V3.77778H22.6667V1.88889C22.6667 1.38792 22.8657 0.907478 23.2199 0.553243C23.5741 0.199007 24.0546 0 24.5556 0ZM9.46333 24.5556H9.44444C8.96301 24.5561 8.49994 24.7404 8.14986 25.0709C7.79978 25.4014 7.58911 25.8531 7.5609 26.3337C7.53268 26.8144 7.68905 27.2876 7.99806 27.6568C8.30706 28.026 8.74537 28.2632 9.22344 28.3201L9.46333 28.3333C9.9643 28.3333 10.4447 28.1343 10.799 27.7801C11.1532 27.4259 11.3522 26.9454 11.3522 26.4444C11.3522 25.9435 11.1532 25.463 10.799 25.1088C10.4447 24.7546 9.9643 24.5556 9.46333 24.5556ZM17.0189 24.5556H17C16.5186 24.5561 16.0555 24.7404 15.7054 25.0709C15.3553 25.4014 15.1447 25.8531 15.1165 26.3337C15.0882 26.8144 15.2446 27.2876 15.5536 27.6568C15.8626 28.026 16.3009 28.2632 16.779 28.3201L17.0189 28.3333C17.5199 28.3333 18.0003 28.1343 18.3545 27.7801C18.7088 27.4259 18.9078 26.9454 18.9078 26.4444C18.9078 25.9435 18.7088 25.463 18.3545 25.1088C18.0003 24.7546 17.5199 24.5556 17.0189 24.5556ZM24.5744 24.5556H24.5556C24.0741 24.5561 23.611 24.7404 23.261 25.0709C22.9109 25.4014 22.7002 25.8531 22.672 26.3337C22.6438 26.8144 22.8002 27.2876 23.1092 27.6568C23.4182 28.026 23.8565 28.2632 24.3346 28.3201L24.5744 28.3333C25.0754 28.3333 25.5559 28.1343 25.9101 27.7801C26.2643 27.4259 26.4633 26.9454 26.4633 26.4444C26.4633 25.9435 26.2643 25.463 25.9101 25.1088C25.5559 24.7546 25.0754 24.5556 24.5744 24.5556ZM9.46333 17H9.44444C8.96301 17.0005 8.49994 17.1849 8.14986 17.5154C7.79978 17.8459 7.58911 18.2976 7.5609 18.7782C7.53268 19.2588 7.68905 19.732 7.99806 20.1012C8.30706 20.4704 8.74537 20.7077 9.22344 20.7646L9.46333 20.7778C9.9643 20.7778 10.4447 20.5788 10.799 20.2245C11.1532 19.8703 11.3522 19.3899 11.3522 18.8889C11.3522 18.3879 11.1532 17.9075 10.799 17.5532C10.4447 17.199 9.9643 17 9.46333 17ZM17.0189 17H17C16.5186 17.0005 16.0555 17.1849 15.7054 17.5154C15.3553 17.8459 15.1447 18.2976 15.1165 18.7782C15.0882 19.2588 15.2446 19.732 15.5536 20.1012C15.8626 20.4704 16.3009 20.7077 16.779 20.7646L17.0189 20.7778C17.5199 20.7778 18.0003 20.5788 18.3545 20.2245C18.7088 19.8703 18.9078 19.3899 18.9078 18.8889C18.9078 18.3879 18.7088 17.9075 18.3545 17.5532C18.0003 17.199 17.5199 17 17.0189 17ZM24.5744 17H24.5556C24.0741 17.0005 23.611 17.1849 23.261 17.5154C22.9109 17.8459 22.7002 18.2976 22.672 18.7782C22.6438 19.2588 22.8002 19.732 23.1092 20.1012C23.4182 20.4704 23.8565 20.7077 24.3346 20.7646L24.5744 20.7778C25.0754 20.7778 25.5559 20.5788 25.9101 20.2245C26.2643 19.8703 26.4633 19.3899 26.4633 18.8889C26.4633 18.3879 26.2643 17.9075 25.9101 17.5532C25.5559 17.199 25.0754 17 24.5744 17ZM30.2222 7.55556H3.77778V11.3333H30.2222V7.55556Z" fill="url(#paint0_linear_374_945)"/>
<defs>
<linearGradient id="paint0_linear_374_945" x1="17" y1="0" x2="17" y2="34" gradientUnits="userSpaceOnUse">
<stop stop-color="#F597B6"/>
<stop offset="1" stop-color="#A3B3FA"/>
</linearGradient>
</defs>
</svg>
