<svg width="31" height="31" viewBox="0 0 31 31" fill="none" xmlns="http://www.w3.org/2000/svg">
<path d="M15.5 0C16.9229 0 18.2952 0.181641 19.6172 0.544922C20.9391 0.908203 22.1702 1.43294 23.3105 2.11914C24.4508 2.80534 25.4953 3.61263 26.4438 4.54102C27.3924 5.4694 28.2048 6.51383 28.8809 7.67432C29.557 8.8348 30.0767 10.071 30.4399 11.3828C30.8032 12.6947 30.9899 14.0671 31 15.5C31 16.9229 30.8184 18.2952 30.4551 19.6172C30.0918 20.9391 29.5671 22.1702 28.8809 23.3105C28.1947 24.4508 27.3874 25.4953 26.459 26.4438C25.5306 27.3924 24.4862 28.2048 23.3257 28.8809C22.1652 29.557 20.929 30.0767 19.6172 30.4399C18.3053 30.8032 16.9329 30.9899 15.5 31C14.0771 31 12.7048 30.8184 11.3828 30.4551C10.0609 30.0918 8.82975 29.5671 7.68945 28.8809C6.54915 28.1947 5.50472 27.3874 4.55615 26.459C3.60758 25.5306 2.79525 24.4862 2.11914 23.3257C1.44303 22.1652 0.92334 20.929 0.560059 19.6172C0.196777 18.3053 0.0100911 16.9329 0 15.5C0 14.0771 0.181641 12.7048 0.544922 11.3828C0.908203 10.0609 1.43294 8.82975 2.11914 7.68945C2.80534 6.54915 3.61263 5.50472 4.54102 4.55615C5.4694 3.60758 6.51383 2.79525 7.67432 2.11914C8.8348 1.44303 10.071 0.92334 11.3828 0.560059C12.6947 0.196777 14.0671 0.0100911 15.5 0ZM24.6274 10.3687L22.5688 8.31006L12.5938 18.2852L8.43115 14.1226L6.37256 16.1812L12.5938 22.4023L24.6274 10.3687Z" fill="url(#paint0_linear_374_985)"/>
<defs>
<linearGradient id="paint0_linear_374_985" x1="15.5" y1="0" x2="15.5" y2="31" gradientUnits="userSpaceOnUse">
<stop stop-color="#F597B6"/>
<stop offset="1" stop-color="#A3B3FA"/>
</linearGradient>
</defs>
</svg>
